<?xml version="1.0" encoding="UTF-8" standalone="no"?>
<svg width="50px" height="50px" viewBox="0 0 50 50" version="1.1" xmlns="http://www.w3.org/2000/svg" xmlns:xlink="http://www.w3.org/1999/xlink">
    <!-- Generator: sketchtool 39.1 (31720) - http://www.bohemiancoding.com/sketch -->
    <title>BAY</title>
    <desc>Created with sketchtool.</desc>
    <defs></defs>
    <g id="Page-1" stroke="none" stroke-width="1" fill="none" fill-rule="evenodd">
        <g id="Price" transform="translate(-993.000000, -1421.000000)">
            <g id="internetBanking" transform="translate(235.000000, 1391.000000)">
                <g id="banks" transform="translate(605.000000, 30.000000)">
                    <g id="BAY" transform="translate(153.000000, 0.000000)">
                        <path d="M50,25 C50,38.8075 38.8075,50 25,50 C11.1925,50 0,38.8075 0,25 C0,11.1925 11.1925,0 25,0 C38.8075,0 50,11.1925 50,25" id="Fill-1" fill="#FFC72B"></path>
                        <path d="M17.493375,21.500875 C17.493375,24.374625 14.159625,28.607125 10.688375,30.219625 L10.655875,30.208375 C11.332125,32.072125 12.364625,33.767125 13.654625,35.223375 L13.667125,35.215875 C16.408375,33.798375 18.594625,31.070875 20.287125,27.845875 C18.808375,26.238375 17.493375,22.993375 17.493375,21.500875" id="Fill-3" fill="#FFFFFF"></path>
                        <path d="M25.001125,21.500875 C24.911125,25.813375 21.577375,34.465875 17.591125,38.340875 C19.782375,39.559625 22.309875,40.257125 25.001125,40.258375 C27.691125,40.257125 30.216125,39.559625 32.408625,38.340875 C28.422375,34.465875 25.089875,25.813375 25.001125,21.500875" id="Fill-5" fill="#FFFFFF"></path>
                        <path d="M32.507625,21.500875 C32.507625,24.374625 35.840125,28.607125 39.311375,30.219625 L39.345125,30.208375 C38.670125,32.072125 37.636375,33.767125 36.346375,35.223375 L36.332625,35.215875 C33.591375,33.798375 31.405125,31.070875 29.713875,27.845875 C31.193875,26.238375 32.507625,22.993375 32.507625,21.500875" id="Fill-7" fill="#FFFFFF"></path>
                        <path d="M21.759125,24.625875 C23.556625,20.132125 24.550375,15.167125 24.881625,11.672125 C24.897875,11.494625 24.955375,10.353375 24.955375,9.742125 C22.290375,9.754625 19.779125,10.443375 17.536625,11.689625 C17.560375,12.520875 17.629125,13.244625 17.666625,13.554625 C18.100375,17.115875 19.372875,23.095875 21.759125,24.625875" id="Fill-9" fill="#FFFFFF"></path>
                        <path d="M17.367125,13.550625 C17.394625,13.285625 17.428375,12.563125 17.449625,11.738125 C12.850875,14.369375 9.742125,19.320625 9.742125,24.996875 C9.742125,25.494375 9.783375,26.384375 9.827125,26.870625 C14.882125,24.764375 16.800875,19.131875 17.367125,13.550625" id="Fill-11" fill="#FFFFFF"></path>
                        <path d="M28.241625,24.625875 C26.445375,20.132125 25.449125,15.167125 25.119125,11.672125 C25.101625,11.494625 25.044125,10.353375 25.044125,9.742125 C27.709125,9.754625 30.221625,10.443375 32.464125,11.689625 C32.439125,12.520875 32.371625,13.244625 32.334125,13.554625 C31.900375,17.115875 30.627875,23.095875 28.241625,24.625875" id="Fill-13" fill="#FFFFFF"></path>
                        <path d="M32.633625,13.550625 C32.607375,13.285625 32.571125,12.563125 32.552375,11.738125 C37.149875,14.369375 40.257375,19.320625 40.257375,24.996875 C40.257375,25.494375 40.218625,26.384375 40.173625,26.870625 C35.118625,24.764375 33.199875,19.131875 32.633625,13.550625" id="Fill-15" fill="#FFFFFF"></path>
                    </g>
                </g>
            </g>
        </g>
    </g>
</svg>