<?xml version="1.0" encoding="UTF-8" standalone="no"?>
<svg width="50px" height="50px" viewBox="0 0 50 50" version="1.1" xmlns="http://www.w3.org/2000/svg" xmlns:xlink="http://www.w3.org/1999/xlink">
    <!-- Generator: sketchtool 39.1 (31720) - http://www.bohemiancoding.com/sketch -->
    <title>SCB</title>
    <desc>Created with sketchtool.</desc>
    <defs></defs>
    <g id="Page-1" stroke="none" stroke-width="1" fill="none" fill-rule="evenodd">
        <g id="Price" transform="translate(-840.000000, -1421.000000)">
            <g id="internetBanking" transform="translate(235.000000, 1391.000000)">
                <g id="banks" transform="translate(605.000000, 30.000000)">
                    <g id="SCB">
                        <path d="M50,25 C50,38.8075 38.8075,50 25,50 C11.1925,50 0,38.8075 0,25 C0,11.1925 11.1925,0 25,0 C38.8075,0 50,11.1925 50,25" id="Fill-1" fill="#592974"></path>
                        <path d="M34.1986585,19.1135366 L24.7767073,10.652561 L24.7437805,10.6232927 L24.7120732,10.652561 L15.290122,19.1135366 L11.7120732,33.0403659 L18.4815854,36.2330488 L23.849878,36.2330488 L23.849878,30.5257317 C23.849878,30.5257317 20.9486585,32.2671951 18.5303659,31.4452439 C15.342561,30.3610976 16.4986585,23.9489024 19.1108537,20.1769512 C21.4620732,16.7806098 24.2645122,14.9171951 24.7437805,14.6135366 C25.2242683,14.9171951 28.0267073,16.7806098 30.3779268,20.1769512 C32.990122,23.9489024 34.1462195,30.3610976 30.9584146,31.4452439 C28.540122,32.2671951 25.6389024,30.5257317 25.6389024,30.5257317 L25.6389024,36.2330488 L31.0071951,36.2330488 L37.7767073,33.0403659 L34.1986585,19.1135366 Z" id="Fill-5" fill="#DFAB26"></path>
                    </g>
                </g>
            </g>
        </g>
    </g>
</svg>